<svg width="14" height="14" viewBox="0 0 14 14" fill="none" xmlns="http://www.w3.org/2000/svg">
<path d="M12.6516 4.97763L3.45491 0.308877C3.09445 0.0997643 2.68514 -0.00682143 2.27004 0.000338359C1.85495 0.00749815 1.44943 0.128138 1.09618 0.349562C0.742922 0.570985 0.454989 0.885003 0.262686 1.25856C0.0703822 1.63212 -0.0191798 2.05141 0.00342684 2.47229V11.5388C-0.0129866 11.9582 0.0785779 12.3746 0.269085 12.7471C0.459593 13.1196 0.742461 13.4352 1.08978 13.6628C1.44386 13.8843 1.8518 14.0011 2.26769 14C2.67865 13.9955 3.08296 13.8941 3.44871 13.7038L12.6454 9.03501C13.0452 8.87324 13.388 8.59344 13.6294 8.23179C13.8709 7.87013 14 7.44325 14 7.00632C14 6.56939 13.8709 6.14251 13.6294 5.78085C13.388 5.4192 13.0452 5.1394 12.6454 4.97763H12.6516Z" fill="#FFCD06"/>
</svg>
