<svg width="0" height="0" class="hidden">
  <symbol xmlns="http://www.w3.org/2000/svg" viewBox="0 0 384 384" id="add-button">
    <path d="M368 176c-8.832 0-16 7.168-16 16 0 88.224-71.776 160-160 160S32 280.224 32 192 103.776 32 192 32c42.952 0 83.272 16.784 113.544 47.264 6.216 6.272 16.352 6.312 22.624.08 6.272-6.224 6.304-16.352.08-22.624C291.928 20.144 243.536 0 192 0 86.128 0 0 86.128 0 192s86.128 192 192 192 192-86.128 192-192c0-8.832-7.168-16-16-16z"></path>
    <path d="M256 176h-48v-48c0-8.832-7.168-16-16-16s-16 7.168-16 16v48h-48c-8.832 0-16 7.168-16 16s7.168 16 16 16h48v48c0 8.832 7.168 16 16 16s16-7.168 16-16v-48h48c8.832 0 16-7.168 16-16s-7.168-16-16-16z"></path>
  </symbol>
  <symbol xmlns="http://www.w3.org/2000/svg" viewBox="0 0 142.448 142.448" id="play-button">
    <g>
      <path d="M142.411 68.9C141.216 31.48 110.968 1.233 73.549.038c-20.361-.646-39.41 7.104-53.488 21.639C6.527 35.65-.584 54.071.038 73.549c1.194 37.419 31.442 67.667 68.861 68.861.779.025 1.551.037 2.325.037 19.454 0 37.624-7.698 51.163-21.676 13.534-13.972 20.646-32.394 20.024-51.871zm-30.798 41.436c-10.688 11.035-25.032 17.112-40.389 17.112-.614 0-1.228-.01-1.847-.029-29.532-.943-53.404-24.815-54.348-54.348-.491-15.382 5.122-29.928 15.806-40.958 10.688-11.035 25.032-17.112 40.389-17.112.614 0 1.228.01 1.847.029 29.532.943 53.404 24.815 54.348 54.348.491 15.382-5.123 29.928-15.806 40.958z"></path>
      <path d="M94.585 67.086L63.001 44.44c-3.369-2.416-8.059-.008-8.059 4.138v45.293c0 4.146 4.69 6.554 8.059 4.138l31.583-22.647c2.834-2.031 2.834-6.244.001-8.276z"></path>
    </g>
  </symbol>
  <symbol xmlns="http://www.w3.org/2000/svg" viewBox="0 0 348.333 348.334" id="delete">
    <path d="M336.559 68.611L231.016 174.165l105.543 105.549c15.699 15.705 15.699 41.145 0 56.85-7.844 7.844-18.128 11.769-28.407 11.769-10.296 0-20.581-3.919-28.419-11.769L174.167 231.003 68.609 336.563c-7.843 7.844-18.128 11.769-28.416 11.769-10.285 0-20.563-3.919-28.413-11.769-15.699-15.698-15.699-41.139 0-56.85l105.54-105.549L11.774 68.611c-15.699-15.699-15.699-41.145 0-56.844 15.696-15.687 41.127-15.687 56.829 0l105.563 105.554L279.721 11.767c15.705-15.687 41.139-15.687 56.832 0 15.705 15.699 15.705 41.145.006 56.844z"></path>
  </symbol>
  <symbol xmlns="http://www.w3.org/2000/svg" viewBox="0 0 477.873 477.873" id="edit">
    <path d="M392.533 238.937c-9.426 0-17.067 7.641-17.067 17.067V426.67c0 9.426-7.641 17.067-17.067 17.067H51.2c-9.426 0-17.067-7.641-17.067-17.067V85.337c0-9.426 7.641-17.067 17.067-17.067H256c9.426 0 17.067-7.641 17.067-17.067S265.426 34.137 256 34.137H51.2C22.923 34.137 0 57.06 0 85.337V426.67c0 28.277 22.923 51.2 51.2 51.2h307.2c28.277 0 51.2-22.923 51.2-51.2V256.003c0-9.425-7.641-17.066-17.067-17.066z"></path>
    <path d="M458.742 19.142A65.328 65.328 0 00412.536.004a64.85 64.85 0 00-46.199 19.149L141.534 243.937a17.254 17.254 0 00-4.113 6.673l-34.133 102.4c-2.979 8.943 1.856 18.607 10.799 21.585 1.735.578 3.552.873 5.38.875a17.336 17.336 0 005.393-.87l102.4-34.133c2.515-.84 4.8-2.254 6.673-4.13l224.802-224.802c25.515-25.512 25.518-66.878.007-92.393z"></path>
  </symbol>
  <symbol xmlns="http://www.w3.org/2000/svg" viewBox="0 0 30.05 30.05" id="stop-button">
    <g>
      <path d="M18.993 10.688h-7.936a.342.342 0 00-.346.342v8.022c0 .189.155.344.346.344h7.936c.19 0 .344-.154.344-.344V11.03a.342.342 0 00-.344-.342z"></path>
      <path d="M15.026 0C6.729 0 .001 6.726.001 15.025S6.729 30.05 15.026 30.05c8.298 0 15.023-6.726 15.023-15.025S23.324 0 15.026 0zm0 27.54c-6.912 0-12.516-5.604-12.516-12.515 0-6.914 5.604-12.517 12.516-12.517 6.913 0 12.514 5.603 12.514 12.517 0 6.911-5.601 12.515-12.514 12.515z"></path>
    </g>
  </symbol>
</svg>